<svg xmlns="http://www.w3.org/2000/svg" width="900" height="1280" viewBox="0 0 900 1280">
<rect width="900" height="1280" fill="#d8d1bb"/>
<rect x="45" y="35" width="810" height="1210" rx="5" fill="#f7f2df" stroke="#625b4d" stroke-width="2"/>
<text x="80" y="82" font-family="Arial,sans-serif" font-size="34" font-weight="700" fill="#202020">DHPP</text>
<text x="80" y="112" font-family="Arial,sans-serif" font-size="17" fill="#555">HOMICÍDIOS</text>
<text x="790" y="96" text-anchor="end" font-family="Arial,sans-serif" font-size="48" font-weight="700" fill="#e1dccb">DHPP</text>
<path d="M80 148H820" stroke="#444" stroke-width="2"/>
<text x="80" y="188" font-family="Georgia,serif" font-size="28" font-weight="700" fill="#171717">AUTO DE APREENSÃO</text>
<text x="80" y="224" font-family="Arial,sans-serif" font-size="16" fill="#625d52">CADEIA DE CUSTÓDIA · ITEM ELETRÔNICO</text>

<g font-family="Courier New,monospace" fill="#2e2c28">
 <text x="100" y="300" font-size="17" font-weight="700">ITEM</text><text x="120" y="335" font-size="19">Aparelho celular pertencente a Helena Valença</text>
 <text x="100" y="395" font-size="17" font-weight="700">MARCA / MODELO</text><text x="120" y="430" font-size="19">A APURAR</text>
 <text x="100" y="490" font-size="17" font-weight="700">NÚMERO / IDENTIFICAÇÃO</text><text x="120" y="525" font-size="19">A APURAR</text>
 <text x="100" y="585" font-size="17" font-weight="700">LOCAL</text><text x="120" y="620" font-size="19">Rua das Acácias · Campo Belo</text>
 <text x="100" y="680" font-size="17" font-weight="700">HORA</text><text x="120" y="715" font-size="19">A APURAR</text>
 <text x="100" y="775" font-size="17" font-weight="700">CONDIÇÃO</text><text x="120" y="810" font-size="19">Apreendido e acondicionado para análise</text>
</g>
<rect x="105" y="860" width="690" height="115" fill="none" stroke="#514d45" stroke-width="2"/>
<text x="130" y="895" font-family="Courier New,monospace" font-size="18" font-weight="700" fill="#38352f">ETIQUETA DE CADEIA DE CUSTÓDIA</text>
<text x="130" y="935" font-family="Courier New,monospace" font-size="16" fill="#514c43">Identificador: A APURAR</text>
<path d="M110 1055H390M500 1055H790" stroke="#524d43" stroke-width="2"/>
<text x="110" y="1080" font-family="Courier New,monospace" font-size="13" fill="#655e52">Responsável pela apreensão</text>
<text x="500" y="1080" font-family="Courier New,monospace" font-size="13" fill="#655e52">Recebimento / custódia</text>
<path d="M80 1170H820" stroke="#a79f8c"/>
<text x="80" y="1200" font-family="Courier New,monospace" font-size="14" fill="#655e50">ARQUIVO FICCIONAL · CASO 01</text>
</svg>