<svg xmlns="http://www.w3.org/2000/svg" width="900" height="1280" viewBox="0 0 900 1280">
<rect width="900" height="1280" fill="#d8d1bb"/>
<rect x="45" y="35" width="810" height="1210" rx="5" fill="#f7f2df" stroke="#625b4d" stroke-width="2"/>
<text x="80" y="82" font-family="Arial,sans-serif" font-size="34" font-weight="700" fill="#202020">DHPP</text>
<text x="80" y="112" font-family="Arial,sans-serif" font-size="17" fill="#555">HOMICÍDIOS</text>
<text x="790" y="96" text-anchor="end" font-family="Arial,sans-serif" font-size="48" font-weight="700" fill="#e1dccb">DHPP</text>
<path d="M80 148H820" stroke="#444" stroke-width="2"/>
<text x="80" y="188" font-family="Georgia,serif" font-size="28" font-weight="700" fill="#171717">TERMO DE DEPOIMENTO</text>
<text x="80" y="224" font-family="Arial,sans-serif" font-size="16" fill="#625d52">MODELO EM BRANCO</text>

<g font-family="Courier New,monospace" font-size="18" fill="#302e2a">
 <text x="100" y="310">NOME: _______________________________________________</text>
 <text x="100" y="365">DOCUMENTO: ___________________________________________</text>
 <text x="100" y="420">DATA: __________________  HORA: __________________</text>
 <text x="100" y="490" font-weight="700">DECLARAÇÃO:</text>
</g>
<g stroke="#b1aa99"><path d="M105 545H795"/><path d="M105 603H795"/><path d="M105 661H795"/><path d="M105 719H795"/><path d="M105 777H795"/><path d="M105 835H795"/><path d="M105 893H795"/></g>
<path d="M120 1040H420M500 1040H785" stroke="#514d45" stroke-width="2"/>
<text x="120" y="1065" font-family="Courier New,monospace" font-size="13" fill="#655e52">Assinatura do depoente</text>
<text x="500" y="1065" font-family="Courier New,monospace" font-size="13" fill="#655e52">Responsável pelo termo</text>
<path d="M80 1170H820" stroke="#a79f8c"/>
<text x="80" y="1200" font-family="Courier New,monospace" font-size="14" fill="#655e50">ARQUIVO FICCIONAL · CASO 01</text>
<!-- render-trigger -->
</svg>